<svg width="42" height="32" viewBox="0 0 42 32" fill="none" xmlns="http://www.w3.org/2000/svg">
<rect width="42" height="32" rx="2" fill="#2585F0"/>
<path d="M21.6667 13.3333C22.1971 13.3333 22.7058 13.544 23.0809 13.9191C23.456 14.2942 23.6667 14.8029 23.6667 15.3333C23.6667 15.5101 23.7369 15.6797 23.8619 15.8047C23.987 15.9298 24.1565 16 24.3333 16C24.5101 16 24.6797 15.9298 24.8047 15.8047C24.9298 15.6797 25 15.5101 25 15.3333C25 14.4493 24.6488 13.6014 24.0237 12.9763C23.3986 12.3512 22.5507 12 21.6667 12C21.4899 12 21.3203 12.0702 21.1953 12.1953C21.0702 12.3203 21 12.4899 21 12.6667C21 12.8435 21.0702 13.013 21.1953 13.1381C21.3203 13.2631 21.4899 13.3333 21.6667 13.3333V13.3333Z" fill="white"/>
<path d="M21.6667 10.6667C22.9043 10.6667 24.0913 11.1583 24.9665 12.0335C25.8417 12.9087 26.3333 14.0957 26.3333 15.3333C26.3333 15.5101 26.4036 15.6797 26.5286 15.8047C26.6536 15.9298 26.8232 16 27 16C27.1768 16 27.3464 15.9298 27.4714 15.8047C27.5964 15.6797 27.6667 15.5101 27.6667 15.3333C27.6667 13.742 27.0345 12.2159 25.9093 11.0907C24.7841 9.96547 23.258 9.33333 21.6667 9.33333C21.4899 9.33333 21.3203 9.40357 21.1953 9.52859C21.0702 9.65361 21 9.82318 21 9.99999C21 10.1768 21.0702 10.3464 21.1953 10.4714C21.3203 10.5964 21.4899 10.6667 21.6667 10.6667V10.6667Z" fill="white"/>
<path d="M27.5 18.6067C27.4633 18.4996 27.4 18.4037 27.3161 18.3279C27.2321 18.2521 27.1302 18.1989 27.02 18.1733L23.02 17.26C22.9114 17.2354 22.7984 17.2383 22.6913 17.2686C22.5842 17.2989 22.4863 17.3555 22.4067 17.4333C22.3133 17.52 22.3067 17.5267 21.8733 18.3533C20.4355 17.6908 19.2833 16.5339 18.6267 15.0933C19.4733 14.6667 19.48 14.6667 19.5667 14.5667C19.6445 14.487 19.7011 14.3892 19.7314 14.2821C19.7617 14.1749 19.7646 14.0619 19.74 13.9533L18.8267 9.99999C18.8011 9.88979 18.7479 9.78791 18.6721 9.70394C18.5963 9.61996 18.5004 9.55666 18.3933 9.51999C18.2377 9.46439 18.0769 9.4242 17.9133 9.39999C17.7448 9.36093 17.5729 9.33859 17.4 9.33333C16.5867 9.33333 15.8067 9.65642 15.2315 10.2315C14.6564 10.8066 14.3333 11.5867 14.3333 12.4C14.3369 15.1218 15.4197 17.7311 17.3443 19.6557C19.2689 21.5803 21.8782 22.6631 24.6 22.6667C25.0027 22.6667 25.4015 22.5873 25.7736 22.4332C26.1456 22.2791 26.4837 22.0532 26.7685 21.7685C27.0532 21.4837 27.2791 21.1456 27.4332 20.7736C27.5874 20.4015 27.6667 20.0027 27.6667 19.6C27.6669 19.4303 27.6535 19.2609 27.6267 19.0933C27.5987 18.9277 27.5563 18.7649 27.5 18.6067V18.6067Z" fill="white"/>
</svg>
