<svg width="188" height="56" viewBox="0 0 188 56" fill="none" xmlns="http://www.w3.org/2000/svg">
<path d="M51.2268 55.5452H39.316V35.4802H42.6975V52.2095H51.2268V55.5452Z" fill="#0061A7"/>
<path d="M63.9957 41.5958C62.4816 40.2312 60.7656 40.0291 59.8572 40.0291C59.6553 40.0291 59.1001 40.0291 58.8478 40.0291C57.9393 40.0291 56.2738 40.2818 54.8607 41.5958C53.3466 42.9605 52.5895 45.0832 52.5895 47.9135C52.5895 50.6933 53.3466 52.8161 54.8607 54.1301C56.2738 55.3431 57.9393 55.5958 58.8983 55.5958C59.1001 55.5958 59.7058 55.5958 59.9581 55.5958C60.9171 55.5958 62.5826 55.3937 63.9957 54.1301C65.5098 52.7655 66.2668 50.6933 66.2668 47.9135C66.2668 45.0832 65.5098 42.9605 63.9957 41.5958ZM61.2703 52.0074C60.2105 52.9677 58.2422 52.9677 57.1823 52.0074C56.3243 51.2493 55.9205 49.8341 55.9205 47.9135C55.9205 45.9424 56.3748 44.4767 57.2328 43.668C58.2422 42.7078 60.2105 42.7078 61.2199 43.668C62.0779 44.4767 62.5321 45.8919 62.5321 47.9135C62.5321 49.8846 62.0779 51.2493 61.2703 52.0074Z" fill="#0061A7"/>
<path d="M96.2459 35.5308H88.1203V55.6463H90.997H91.6532V47.8123H96.3468C98.1638 47.8123 101.899 46.4983 101.899 41.5957C101.899 36.7943 98.0628 35.5308 96.2459 35.5308ZM95.2365 45.1336C94.8327 45.1336 92.6121 45.1336 91.6532 45.1336V38.1589H95.0851C95.5393 38.1589 98.1133 38.3105 98.1133 41.5452C98.1638 45.0326 95.7412 45.1336 95.2365 45.1336Z" fill="#0061A7"/>
<path d="M121.834 42.8593C121.834 42.8593 121.784 41.343 121.481 40.4838C121.228 40.4838 118.453 40.4838 118.453 40.4838V55.343H121.38H121.784V45.7401C123.5 43.112 126.629 43.6174 126.629 43.6174L126.679 40.2816C126.578 40.3322 124.459 39.8268 121.834 42.8593Z" fill="#0061A7"/>
<path d="M137.581 52.6643C136.521 52.6643 133.846 53.2203 133.846 51.2491V42.9603H137.48V40.2816H133.846V35.8845C133.846 35.8845 132.534 35.8845 131.726 35.8845C131.171 39.0181 130.464 39.8773 129.758 40.1806C129.304 40.3322 127.941 40.6354 127.941 40.6354V42.9603H130.212V51.2491C130.212 51.4513 129.96 55.6463 133.947 55.6463C134.048 55.6463 134.3 55.6463 134.452 55.6463C135.663 55.5957 137.429 55.0903 137.581 54.9892V52.6643Z" fill="#0061A7"/>
<path d="M146.817 40.0796C145.555 40.0796 140.861 40.6355 140.407 40.6861V42.9099C141.669 42.9099 143.132 42.8088 145.807 42.8088C146.766 42.8088 148.331 42.8594 148.331 45.5886V46.2962C147.019 46.2962 145.252 46.2962 144.495 46.2962C143.284 46.3467 142.022 46.4478 140.861 47.6608C140.256 48.2673 139.499 49.3287 139.499 51.0976C139.499 52.8666 140.256 53.928 140.861 54.4839C142.022 55.5453 144.091 55.5958 144.293 55.5958C145.504 55.5958 146.564 55.242 148.331 53.5742V55.1915H151.561V45.6392C151.46 41.4948 149.492 40.0796 146.817 40.0796ZM143.536 52.6139C143.132 52.3106 142.779 51.8052 142.779 51.1482C142.779 50.3395 142.981 48.8233 145.05 48.8233H148.28V51.0976C146.413 53.4225 144.192 53.1193 143.536 52.6139Z" fill="#0061A7"/>
<path d="M154.286 51.5525V35.1265H157.769V51.047C157.769 52.8665 159.434 52.6644 159.888 52.6644C159.888 53.5236 159.838 54.9387 159.838 54.9387C158.425 56.0001 154.286 56.5055 154.286 51.5525Z" fill="#0061A7"/>
<path d="M173.212 54.6859V52.5631C173.212 52.5631 168.922 52.7148 167.61 52.6642H167.56C165.591 52.6642 164.632 50.8953 164.733 48.6209H170.285C172.253 48.6209 174.272 47.5595 174.272 44.4765C174.272 40.888 170.992 39.7256 168.468 39.7256C165.087 39.7256 160.999 41.6462 160.999 47.509C160.999 54.787 166.096 55.5451 167.509 55.5451C167.61 55.5451 167.863 55.5451 168.115 55.5451C169.225 55.5956 171.194 55.3429 173.212 54.6859ZM168.418 42.6065C168.922 42.6065 170.891 42.7075 170.891 44.527C170.891 45.4873 170.083 46.0938 169.074 46.0938H164.683C164.986 43.314 166.702 42.6065 168.418 42.6065Z" fill="#0061A7"/>
<path d="M182.095 55.6464C179.874 55.6464 176.089 54.7872 175.938 54.7872L175.988 52.715C176.039 52.715 178.613 52.8161 181.288 52.8161C182.297 52.8161 184.265 52.9677 184.265 50.8955C184.265 50.1374 183.811 49.4298 181.944 49.076C181.843 49.0255 175.988 48.3179 175.988 44.3251C175.988 39.8775 180.53 39.7258 182.146 39.6753C185.174 39.6753 187.142 40.8377 187.243 40.8883V42.6067C187.243 42.6067 184.77 42.4551 182.448 42.4551C180.43 42.4551 179.874 43.2132 179.824 44.1735C179.773 44.9316 180.026 45.4876 181.944 45.993C182.852 46.2457 187.95 47.0544 187.95 50.845C188 53.7258 185.325 55.6464 182.095 55.6464Z" fill="#0061A7"/>
<path d="M114.213 41.5958C112.699 40.2312 110.983 40.0291 110.075 40.0291C109.873 40.0291 109.318 40.0291 109.065 40.0291C108.157 40.0291 106.491 40.2818 105.078 41.5958C103.564 42.9605 102.807 45.0832 102.807 47.9135C102.807 50.6933 103.564 52.8161 105.078 54.1301C106.491 55.3431 108.157 55.5958 109.116 55.5958C109.318 55.5958 109.974 55.5958 110.176 55.5958C111.135 55.5958 112.8 55.3937 114.213 54.1301C115.727 52.7655 116.484 50.6933 116.484 47.9135C116.484 45.0832 115.727 42.9605 114.213 41.5958ZM111.488 52.0074C110.428 52.9677 108.46 52.9677 107.4 52.0074C106.542 51.2493 106.138 49.8341 106.138 47.9135C106.138 45.9424 106.592 44.4767 107.45 43.668C108.46 42.7078 110.428 42.7078 111.437 43.668C112.295 44.4767 112.75 45.8919 112.75 47.9135C112.75 49.8846 112.346 51.2493 111.488 52.0074Z" fill="#0061A7"/>
<path d="M73.9887 56.0002C71.7176 56.0002 67.8314 55.141 67.68 55.0905L67.7305 52.9677C67.7809 52.9677 70.4054 53.0688 73.1812 53.0688C74.2411 53.0688 76.2599 53.2204 76.2599 51.0977C76.2599 50.289 75.8056 49.5814 73.8878 49.2276C73.7868 49.1771 67.7809 48.4695 67.7809 44.3757C67.7809 39.8269 72.4241 39.6753 74.0392 39.6248C77.1178 39.6248 79.1366 40.8378 79.2376 40.8378V42.5562C79.2376 42.5562 76.7141 42.4045 74.2915 42.4045C72.2223 42.4045 71.6671 43.2132 71.6166 44.1735C71.5662 44.9316 71.869 45.5381 73.7868 46.0435C74.6953 46.2962 79.9441 47.1049 79.9441 51.0471C80.0451 54.0291 77.3197 56.0002 73.9887 56.0002Z" fill="#0061A7"/>
<path fill-rule="evenodd" clip-rule="evenodd" d="M45.2209 4.1444C45.2209 4.09386 45.2714 4.09386 45.2714 4.04332C45.3723 3.94224 45.4228 3.84116 45.5238 3.74007C47.8454 1.06137 51.8829 0 55.4158 0C55.4158 0 55.4158 0 55.4663 0H34.5718C34.5718 0 28.0107 0 23.8722 5.61011C20.0365 11.2202 0 40.5343 0 40.5343H12.9203C12.9203 40.5343 20.8945 40.5343 24.1246 35.2274C27.2537 30.5271 41.5366 9.5018 45.2209 4.1444Z" fill="#F7B400"/>
<path fill-rule="evenodd" clip-rule="evenodd" d="M79.2881 23.7545L67.3267 5.91336C64.2985 1.97112 59.9581 0 55.6177 0C51.8325 0 47.4416 1.11191 45.2209 4.1444C45.2209 4.1444 51.1764 12.8881 54.0532 17.1336C54.9616 18.4982 55.7187 19.6101 56.1729 20.3177C58.2926 23.7545 63.3901 23.7545 63.3901 23.7545H79.2881Z" fill="#0061A7"/>
</svg>
